<svg id="Layer_1" data-name="Layer 1" xmlns="http://www.w3.org/2000/svg" viewBox="0 0 118.5 55.1"><defs><style>.cls-1{fill:#fc8e44;}</style></defs><path class="cls-1" d="M60.59,15.67h2l1.83,2.64h2.34l-2.1-3h0a3,3,0,0,0,1.9-3,3.07,3.07,0,0,0-1.09-2.49,4.63,4.63,0,0,0-3-.91h-4v9.4h2.19Zm3.26-4.57a1.47,1.47,0,0,1,.51,1.2,1.5,1.5,0,0,1-.51,1.21,2.26,2.26,0,0,1-1.5.43H60.59V10.68h1.76A2.31,2.31,0,0,1,63.85,11.1Z"/><path class="cls-1" d="M70.12,16.29h4.35l.84,2h2.28L73.37,8.9H71.23l-4.18,9.4h2.23Zm2.17-5.24,1.49,3.59h-3Z"/><polygon class="cls-1" points="83.07 18.3 87.14 8.9 84.97 8.9 82.07 15.62 79.22 8.9 76.85 8.9 80.92 18.3 83.07 18.3"/><polygon class="cls-1" points="95.19 16.56 90.08 16.56 90.08 14.38 94.44 14.38 94.44 12.68 90.08 12.68 90.08 10.65 95.02 10.65 95.02 8.9 87.91 8.9 87.91 18.3 95.19 18.3 95.19 16.56"/><polygon class="cls-1" points="105.55 8.9 103.4 8.9 103.4 14.61 98.72 8.9 96.92 8.9 96.92 18.3 99.07 18.3 99.07 12.6 103.75 18.3 105.55 18.3 105.55 8.9"/><path class="cls-1" d="M107.84,10.66l-.59,2.14h1.34l.77-1.93c.11-.26.19-.46.24-.61a1.87,1.87,0,0,0,.1-.39c0-.12,0-.23,0-.33a1.27,1.27,0,0,0-.36-.95,1.26,1.26,0,0,0-.93-.36,1.31,1.31,0,0,0-.93.36,1.24,1.24,0,0,0-.37.95,1.19,1.19,0,0,0,.37.92A1.17,1.17,0,0,0,107.84,10.66Z"/><path class="cls-1" d="M118.2,14.34a2.19,2.19,0,0,0-.79-.78,4.89,4.89,0,0,0-1.06-.48c-.38-.12-.77-.23-1.17-.32s-.75-.16-1.07-.25a2.17,2.17,0,0,1-.78-.36.7.7,0,0,1-.29-.6.88.88,0,0,1,.18-.54,1.17,1.17,0,0,1,.57-.38,3.19,3.19,0,0,1,1-.14,5,5,0,0,1,1.29.18,5.42,5.42,0,0,1,1.3.54l.69-1.63A5.15,5.15,0,0,0,116.59,9a7,7,0,0,0-1.76-.22,5.41,5.41,0,0,0-2.2.4,2.88,2.88,0,0,0-1.31,1.06,2.61,2.61,0,0,0-.43,1.47,2.33,2.33,0,0,0,.29,1.23,2.19,2.19,0,0,0,.78.79,4.53,4.53,0,0,0,1.07.48,10.52,10.52,0,0,0,1.16.31l1.07.27a2.58,2.58,0,0,1,.78.36.71.71,0,0,1,.3.6.76.76,0,0,1-.19.52,1.26,1.26,0,0,1-.58.36,3.34,3.34,0,0,1-1,.13,5.11,5.11,0,0,1-1.68-.28,5,5,0,0,1-1.43-.7l-.73,1.64a5,5,0,0,0,1.67.78,7.74,7.74,0,0,0,2.17.31,5.32,5.32,0,0,0,2.21-.41A3,3,0,0,0,118.06,17a2.5,2.5,0,0,0,.44-1.45A2.26,2.26,0,0,0,118.2,14.34Z"/><path class="cls-1" d="M59.26,31.29a4.85,4.85,0,0,0,1.62,1,5.75,5.75,0,0,0,2,.35,5.51,5.51,0,0,0,2.23-.43A4.2,4.2,0,0,0,66.79,31L65.38,29.7a3.33,3.33,0,0,1-1.06.83,2.85,2.85,0,0,1-1.3.29,3.18,3.18,0,0,1-1.21-.22,2.89,2.89,0,0,1-1-.62,2.86,2.86,0,0,1-.63-1A3.36,3.36,0,0,1,60,27.8a3.4,3.4,0,0,1,.22-1.22,2.82,2.82,0,0,1,.63-.95,2.92,2.92,0,0,1,1-.63A3.38,3.38,0,0,1,63,24.78a3.13,3.13,0,0,1,1.3.28,3.23,3.23,0,0,1,1.06.84l1.41-1.29a4.3,4.3,0,0,0-1.66-1.25,5.63,5.63,0,0,0-2.22-.42,5.57,5.57,0,0,0-2,.36,4.72,4.72,0,0,0-2.7,2.56,5.17,5.17,0,0,0,0,3.89A4.74,4.74,0,0,0,59.26,31.29Z"/><path class="cls-1" d="M75.76,28.32a3.26,3.26,0,0,0,.5-1.82A3,3,0,0,0,75.17,24a4.59,4.59,0,0,0-3-.91h-4v9.4H70.3V29.87h2L74.1,32.5h2.33l-2.09-3h0A3,3,0,0,0,75.76,28.32Zm-2.2-3a1.47,1.47,0,0,1,.51,1.2,1.5,1.5,0,0,1-.51,1.21,2.26,2.26,0,0,1-1.5.43H70.3V24.88h1.76A2.31,2.31,0,0,1,73.56,25.3Z"/><path class="cls-1" d="M86.22,24.31a4.87,4.87,0,0,0-1.63-1,6,6,0,0,0-4.09,0,5.12,5.12,0,0,0-1.63,1,4.75,4.75,0,0,0-1.09,1.54,5.14,5.14,0,0,0,0,3.88,4.65,4.65,0,0,0,1.09,1.54,4.89,4.89,0,0,0,1.63,1,5.71,5.71,0,0,0,2.06.36,5.81,5.81,0,0,0,2-.35,4.89,4.89,0,0,0,1.63-1,4.43,4.43,0,0,0,1.08-1.55,5,5,0,0,0,0-3.88A4.52,4.52,0,0,0,86.22,24.31Zm-1,4.71a2.74,2.74,0,0,1-.62.95,2.94,2.94,0,0,1-.93.63,3,3,0,0,1-1.17.22,2.92,2.92,0,0,1-1.16-.22,2.88,2.88,0,0,1-.94-.63,3.06,3.06,0,0,1-.62-.95,3.4,3.4,0,0,1-.22-1.22,3.3,3.3,0,0,1,.22-1.21,3.23,3.23,0,0,1,.62-1,2.88,2.88,0,0,1,.94-.63,3.11,3.11,0,0,1,1.16-.22,3.2,3.2,0,0,1,1.17.22,2.94,2.94,0,0,1,.93.63,2.88,2.88,0,0,1,.62,1,3.11,3.11,0,0,1,.22,1.21A3.19,3.19,0,0,1,85.26,29Z"/><polygon class="cls-1" points="98.99 29.76 96.84 23.1 94.83 23.1 92.61 29.71 90.49 23.1 88.24 23.1 91.32 32.5 93.65 32.5 95.78 26.13 97.86 32.5 100.17 32.5 103.26 23.1 101.18 23.1 98.99 29.76"/><polygon class="cls-1" points="110.94 28.8 106.27 23.1 104.47 23.1 104.47 32.5 106.62 32.5 106.62 26.8 111.29 32.5 113.09 32.5 113.09 23.1 110.94 23.1 110.94 28.8"/><path class="cls-1" d="M65.38,43.89a3.23,3.23,0,0,1-1.06.84A3,3,0,0,1,63,45a3.18,3.18,0,0,1-1.21-.22,3.06,3.06,0,0,1-1-.62,2.86,2.86,0,0,1-.63-1A3.36,3.36,0,0,1,60,42a3.4,3.4,0,0,1,.22-1.22,2.72,2.72,0,0,1,.63-1,2.92,2.92,0,0,1,1-.63A3.18,3.18,0,0,1,63,39a3,3,0,0,1,1.3.28,3.33,3.33,0,0,1,1.06.83l1.41-1.28a4.2,4.2,0,0,0-1.66-1.25,5.63,5.63,0,0,0-2.22-.42,5.57,5.57,0,0,0-2,.36,4.67,4.67,0,0,0-1.62,1,4.77,4.77,0,0,0-1.08,1.54,5.19,5.19,0,0,0,0,3.9,4.74,4.74,0,0,0,1.07,1.54,4.85,4.85,0,0,0,1.62,1,5.75,5.75,0,0,0,2,.35,5.51,5.51,0,0,0,2.23-.43,4.3,4.3,0,0,0,1.66-1.25Z"/><path class="cls-1" d="M70.78,37.3l-4.17,9.4h2.22l.84-2H74l.83,2h2.29l-4.22-9.4ZM70.36,43l1.49-3.58L73.34,43Z"/><path class="cls-1" d="M84.37,43.67a3.11,3.11,0,0,0,1.41-1.15,3.29,3.29,0,0,0,.5-1.82,3.07,3.07,0,0,0-1.09-2.49,4.61,4.61,0,0,0-3-.91h-4v9.4h2.18V44.07h2l1.83,2.64h2.33l-2.09-3Zm-.79-4.17a1.47,1.47,0,0,1,.51,1.2,1.5,1.5,0,0,1-.51,1.21,2.32,2.32,0,0,1-1.51.43H80.31V39.07h1.76A2.27,2.27,0,0,1,83.58,39.5Z"/><polygon class="cls-1" points="90.17 42.78 94.53 42.78 94.53 41.07 90.17 41.07 90.17 39.05 95.11 39.05 95.11 37.3 88.01 37.3 88.01 46.7 95.29 46.7 95.29 44.95 90.17 44.95 90.17 42.78"/><path class="cls-1" d="M34.86,31.71a1.6,1.6,0,0,1-.13-.64l-.38,1.75c3.91-.53,5.13,1.12,5.13,1.12,1.13-1,.93-4.24.93-4.24a4.68,4.68,0,0,1-2.28,2.48,1.35,1.35,0,0,1-1.84-1.05.87.87,0,0,1,0-.11,1.61,1.61,0,0,1-.67.86A.5.5,0,0,1,34.86,31.71Z"/><path class="cls-1" d="M30.8,9.55a22.19,22.19,0,0,0-2.31.12l1.22,1.9c.36,0,.72,0,1.09,0A20.78,20.78,0,0,1,33.07,53l.28,0a.71.71,0,0,1-.92-.49,12.13,12.13,0,0,1-1.15-6.88,6.92,6.92,0,0,1,10.32-5,9.42,9.42,0,0,1,1.1.77A2.87,2.87,0,0,0,41.45,38a2.89,2.89,0,0,1-1.69-2.11A2.65,2.65,0,0,0,37.57,34a29.55,29.55,0,0,0-4.3-.65c-1.63-.13-2.2-.9-1.42-2.34a10.9,10.9,0,0,1,1.89-2.5A5.78,5.78,0,0,0,34.41,21l-1-1.46-.53-.76-3.21-4.54,0,0-.09-.1c-.54-.77-1.08-1.55-1.63-2.31-.41-.61-.84-1.22-1.27-1.83Q23.37,5.27,20.09.61C20,.42,19.81.24,19.63,0c-.31.34-.57.58-.79.87a7.56,7.56,0,0,0-1,7.46,15.33,15.33,0,0,0,2.08,4c.39.55.81,1.09,1.26,1.61.23.28.48.57.74.86l.9,1-.08.09-2.69-1.33L18,13.5,7.41,8.27a17.93,17.93,0,0,0-.18,2.54,8.38,8.38,0,0,0,3.23,5.78,17.34,17.34,0,0,0,2.35,1.76c.57.35,1.17.68,1.78,1s1.17.58,1.77.84l1.35.59s0,.08,0,.12l-3.79-.61-2.17-.36L1.25,18.21a9,9,0,0,0,0,1.05A6.46,6.46,0,0,0,2.57,22.6a11,11,0,0,0,5,3.51c.39.15.79.28,1.19.41.6.2,1.23.39,1.9.6.1,0,.2.06.3.09h-.32l-2-.1L0,26.69a2.63,2.63,0,0,0,0,.46,3.65,3.65,0,0,0,.07.46A7.14,7.14,0,0,0,3.8,32.33a14.69,14.69,0,0,0,4.29,1.54c.55.13,1.11.24,1.67.34l-1.63.2-5.82.71A6.46,6.46,0,0,0,6.46,40a12.19,12.19,0,0,0,3.21.85,16.64,16.64,0,0,0,2.24.17c.43,0,.85,0,1.29,0s.77,0,1.15,0c0,0,0,.06,0,.09l-2.13.58c-.65.18-1.31.35-2,.54-1.62.42-3.24.87-4.87,1.31a5.75,5.75,0,0,0,4.25,3.78,11.62,11.62,0,0,0,4.27.34c.38,0,.77-.08,1.14-.14s.85-.15,1.28-.24c1-.2,2.06-.43,3.15-.65l-2.07,1.64-1.6,1.25c-1.58,1.26-3.15,2.49-4.73,3.73.08.1.1.14.14.16l.23.14a8,8,0,0,0,7.51.3.94.94,0,0,1,.52-.11s.64-.4,1.37-.88A22.54,22.54,0,0,0,30.8,55.1a22.78,22.78,0,1,0,0-45.55ZM29.7,53.06h0a20,20,0,0,1-7-1.61,1.24,1.24,0,0,0,.2-.22L26,46.68a7,7,0,0,1,3.7,6.37h0Z"/></svg>