<svg width="16" height="15" viewBox="0 0 16 15" fill="none" xmlns="http://www.w3.org/2000/svg">
<path d="M11.1533 0.824463C13.2914 0.824689 15.0243 2.55841 15.0244 4.69653V11.0032C15.0242 13.1412 13.2914 14.874 11.1533 14.8743H4.84668C2.70859 14.8741 0.974835 13.1413 0.974609 11.0032V4.69653C0.974728 2.55837 2.70852 0.824617 4.84668 0.824463H11.1533ZM4.84668 2.26196C3.50234 2.26212 2.41223 3.35219 2.41211 4.69653V11.0032C2.41234 12.3474 3.50241 13.4376 4.84668 13.4377H11.1533C12.4975 13.4375 13.5877 12.3474 13.5879 11.0032V4.69653C13.5878 3.35223 12.4976 2.26219 11.1533 2.26196H4.84668ZM6.53418 4.94556C7.13929 4.6316 7.82859 4.51646 8.50293 4.61646C9.19069 4.71849 9.82767 5.03889 10.3193 5.53052C10.8109 6.02217 11.1314 6.6592 11.2334 7.34692C11.3334 8.02126 11.2183 8.71057 10.9043 9.31567C10.5903 9.92066 10.0932 10.4116 9.48438 10.718C8.8756 11.0243 8.18555 11.1309 7.5127 11.0227C6.83966 10.9144 6.2174 10.5965 5.73535 10.1145C5.25336 9.63247 4.93547 9.01016 4.82715 8.33716C4.71896 7.66429 4.82549 6.97425 5.13184 6.36548C5.43829 5.75663 5.92919 5.25956 6.53418 4.94556ZM8.29199 6.03833C7.91671 5.98269 7.53305 6.04623 7.19629 6.22095C6.85953 6.3957 6.58659 6.67307 6.41602 7.01196C6.24557 7.35079 6.18584 7.73515 6.24609 8.10962C6.30644 8.48399 6.48383 8.82974 6.75195 9.0979C7.02023 9.36612 7.36666 9.54349 7.74121 9.60376C8.11564 9.66389 8.50012 9.60434 8.83887 9.43384C9.17757 9.26324 9.45423 8.99019 9.62891 8.65356C9.80364 8.31682 9.86715 7.93314 9.81152 7.55786C9.75473 7.17515 9.57629 6.82073 9.30273 6.54712C9.02912 6.27354 8.67473 6.09512 8.29199 6.03833ZM11.4756 3.66235C11.8723 3.66249 12.1942 3.98443 12.1943 4.3811C12.1943 4.77793 11.8724 5.09972 11.4756 5.09985H11.4688C11.0718 5.09985 10.75 4.77801 10.75 4.3811C10.7502 3.98435 11.072 3.66235 11.4688 3.66235H11.4756Z" fill="white"/>
</svg>
