<svg width="12" height="15" viewBox="0 0 12 15" fill="none" xmlns="http://www.w3.org/2000/svg">
<path d="M9.52041 2.2678C8.99739 1.66076 8.70911 0.881329 8.70918 0.0744629H6.34439V9.71891C6.32653 10.2409 6.10984 10.7355 5.74003 11.0983C5.37023 11.4611 4.87622 11.6637 4.36225 11.6634C3.27551 11.6634 2.37245 10.7611 2.37245 9.64113C2.37245 8.30335 3.64286 7.30002 4.95153 7.71224V5.25446C2.31122 4.89669 0 6.98113 0 9.64113C0 12.2311 2.11225 14.0745 4.35459 14.0745C6.75765 14.0745 8.70918 12.0911 8.70918 9.64113V4.74891C9.66811 5.44879 10.8194 5.8243 12 5.82224V3.41891C12 3.41891 10.5612 3.48891 9.52041 2.2678Z" fill="white"/>
</svg>
